<svg xmlns="http://www.w3.org/2000/svg" viewBox="-2241.5 -1032 3511 1544" style="width: 100%; height: 100%;" font-family="Inter, ui-sans-serif, system-ui, sans-serif"><defs><pattern id="export-dot-grid" width="24" height="24" patternUnits="userSpaceOnUse"><circle cx="1" cy="1" r="1" fill="rgba(148, 163, 184, 0.12)"/></pattern><linearGradient id="export-bg-gradient" x1="0%" y1="0%" x2="0%" y2="100%"><stop offset="0%" stop-color="#0a0a0a"/><stop offset="100%" stop-color="#111111"/></linearGradient><filter id="export-node-shadow" x="-20%" y="-20%" width="140%" height="140%"><feDropShadow dx="0" dy="4" stdDeviation="6" flood-color="#000000" flood-opacity="0.45"/></filter><linearGradient id="grad-dma" x1="0%" y1="0%" x2="0%" y2="100%"><stop offset="0%" stop-color="#0d9488"/><stop offset="100%" stop-color="#2dd4bf"/></linearGradient><linearGradient id="grad-dma-h" x1="0%" y1="0%" x2="100%" y2="0%"><stop offset="0%" stop-color="#0d9488"/><stop offset="100%" stop-color="#2dd4bf"/></linearGradient><linearGradient id="grad-custom" x1="0%" y1="0%" x2="0%" y2="100%"><stop offset="0%" stop-color="#9333ea"/><stop offset="100%" stop-color="#c084fc"/></linearGradient><linearGradient id="grad-custom-h" x1="0%" y1="0%" x2="100%" y2="0%"><stop offset="0%" stop-color="#9333ea"/><stop offset="100%" stop-color="#c084fc"/></linearGradient><linearGradient id="grad-peripheral" x1="0%" y1="0%" x2="0%" y2="100%"><stop offset="0%" stop-color="#ea580c"/><stop offset="100%" stop-color="#fb923c"/></linearGradient><linearGradient id="grad-peripheral-h" x1="0%" y1="0%" x2="100%" y2="0%"><stop offset="0%" stop-color="#ea580c"/><stop offset="100%" stop-color="#fb923c"/></linearGradient><marker id="export-arrow" markerWidth="10" markerHeight="10" refX="8" refY="5" orient="auto" markerUnits="strokeWidth"><path d="M 0 0 L 10 5 L 0 10 z" fill="#67e8f9"/></marker></defs><rect x="-2241.5" y="-1032" width="3511" height="1544" fill="url(#export-bg-gradient)"/><rect x="-2241.5" y="-1032" width="3511" height="1544" fill="url(#export-dot-grid)"/><g class="edges"><path d="M 749.5 -260 L 781.5 -260 Q 789.5 -260 789.5 -268 L 789.5 -876 Q 789.5 -884 781.5 -884 L 121.5 -884" fill="none" stroke="#4ade80" stroke-width="3" stroke-opacity="0.62" stroke-dasharray="" marker-end="url(#export-arrow)"/><rect x="770.5" y="-582" width="38" height="18" rx="9" fill="#141414" stroke="#333333"/><text x="789.5" y="-569" fill="#e2e8f0" font-size="9px" text-anchor="middle" font-family="Inter, ui-sans-serif, system-ui, sans-serif">data</text><path d="M 401.5 -884 L 427.5 -884 Q 435.5 -884 435.5 -876 L 435.5 356 Q 435.5 364 427.5 364 L 469.5 364" fill="none" stroke="#4ade80" stroke-width="3" stroke-opacity="0.62" stroke-dasharray="" marker-end="url(#export-arrow)"/><rect x="416.5" y="-270" width="38" height="18" rx="9" fill="#141414" stroke="#333333"/><text x="435.5" y="-257" fill="#e2e8f0" font-size="9px" text-anchor="middle" font-family="Inter, ui-sans-serif, system-ui, sans-serif">data</text><path d="M 401.5 -884 L 433.5 -884 Q 441.5 -884 441.5 -876 L 441.5 -580 Q 441.5 -572 433.5 -572 L -759.5 -572" fill="none" stroke="#4ade80" stroke-width="3" stroke-opacity="0.62" stroke-dasharray="" marker-end="url(#export-arrow)"/><rect x="422.5" y="-738" width="38" height="18" rx="9" fill="#141414" stroke="#333333"/><text x="441.5" y="-725" fill="#e2e8f0" font-size="9px" text-anchor="middle" font-family="Inter, ui-sans-serif, system-ui, sans-serif">data</text><path d="M 401.5 -884 L 433.5 -884 Q 441.5 -884 441.5 -876 L 441.5 148 Q 441.5 156 433.5 156 L -2105.5 156" fill="none" stroke="#2dd4bf" stroke-width="3.5" stroke-opacity="0.66" stroke-dasharray="" marker-end="url(#export-arrow)"/><rect x="423.5" y="-374" width="36" height="18" rx="9" fill="#141414" stroke="#333333"/><text x="441.5" y="-361" fill="#e2e8f0" font-size="9px" text-anchor="middle" font-family="Inter, ui-sans-serif, system-ui, sans-serif">dma</text><path d="M -827.5 260 L -361 260 Q -353 260 -353 252 L -353 -876 Q -353 -884 -361 -884 L 121.5 -884" fill="none" stroke="#4ade80" stroke-width="3" stroke-opacity="0.62" stroke-dasharray="" marker-end="url(#export-arrow)"/><rect x="-372" y="-322" width="38" height="18" rx="9" fill="#141414" stroke="#333333"/><text x="-353" y="-309" fill="#e2e8f0" font-size="9px" text-anchor="middle" font-family="Inter, ui-sans-serif, system-ui, sans-serif">data</text><path d="M 401.5 -676 L 433.5 -676 Q 441.5 -676 441.5 -684 L 441.5 -876 Q 441.5 -884 433.5 -884 L 121.5 -884" fill="none" stroke="#4ade80" stroke-width="3" stroke-opacity="0.62" stroke-dasharray="" marker-end="url(#export-arrow)"/><rect x="422.5" y="-790" width="38" height="18" rx="9" fill="#141414" stroke="#333333"/><text x="441.5" y="-777" fill="#e2e8f0" font-size="9px" text-anchor="middle" font-family="Inter, ui-sans-serif, system-ui, sans-serif">data</text></g><g class="nodes"><g class="node node-component" filter="url(#export-node-shadow)"><rect rx="12" ry="10" x="-2105.5" y="104" width="280" height="104" fill="url(#grad-dma)" stroke="#2dd4bf" stroke-width="2"/><rect rx="8" ry="10" x="-2097.5" y="112" width="264" height="88" fill="rgba(0,0,0,0.18)"/><rect rx="8" ry="10" x="-2087.5" y="122" width="48" height="48" fill="rgba(0,0,0,0.22)" stroke="rgba(255,255,255,0.15)" stroke-width="1"/><text x="-2063.5" y="150" fill="#ccfbf1" font-size="12px" font-weight="800" font-family="Inter, ui-sans-serif, system-ui, sans-serif" text-anchor="middle">DMA</text><text x="-2027.5" y="138" fill="#ffffff" font-size="16px" font-weight="600" font-family="Inter, ui-sans-serif, system-ui, sans-serif">Dma_43</text><text x="-2027.5" y="158" fill="rgba(255,255,255,0.65)" font-size="12px" font-weight="500" text-anchor="start" font-family="Inter, ui-sans-serif, system-ui, sans-serif">dma</text></g><g class="node node-component" filter="url(#export-node-shadow)"><rect rx="12" ry="10" x="-759.5" y="-624" width="280" height="104" fill="url(#grad-custom)" stroke="#c084fc" stroke-width="2"/><rect rx="8" ry="10" x="-751.5" y="-616" width="264" height="88" fill="rgba(0,0,0,0.18)"/><rect rx="8" ry="10" x="-741.5" y="-606" width="48" height="48" fill="rgba(0,0,0,0.22)" stroke="rgba(255,255,255,0.15)" stroke-width="1"/><text x="-717.5" y="-578" fill="#f3e8ff" font-size="12px" font-weight="800" font-family="Inter, ui-sans-serif, system-ui, sans-serif" text-anchor="middle">IP</text><text x="-681.5" y="-590" fill="#ffffff" font-size="16px" font-weight="600" font-family="Inter, ui-sans-serif, system-ui, sans-serif">Custom_27</text><text x="-681.5" y="-570" fill="rgba(255,255,255,0.65)" font-size="12px" font-weight="500" text-anchor="start" font-family="Inter, ui-sans-serif, system-ui, sans-serif">custom</text></g><g class="node node-component" filter="url(#export-node-shadow)"><rect rx="12" ry="10" x="-1107.5" y="208" width="280" height="104" fill="url(#grad-custom)" stroke="#c084fc" stroke-width="2"/><rect rx="8" ry="10" x="-1099.5" y="216" width="264" height="88" fill="rgba(0,0,0,0.18)"/><rect rx="8" ry="10" x="-1089.5" y="226" width="48" height="48" fill="rgba(0,0,0,0.22)" stroke="rgba(255,255,255,0.15)" stroke-width="1"/><text x="-1065.5" y="254" fill="#f3e8ff" font-size="12px" font-weight="800" font-family="Inter, ui-sans-serif, system-ui, sans-serif" text-anchor="middle">IP</text><text x="-1029.5" y="242" fill="#ffffff" font-size="16px" font-weight="600" font-family="Inter, ui-sans-serif, system-ui, sans-serif">Custom_16</text><text x="-1029.5" y="262" fill="rgba(255,255,255,0.65)" font-size="12px" font-weight="500" text-anchor="start" font-family="Inter, ui-sans-serif, system-ui, sans-serif">custom</text></g><g class="node node-component" filter="url(#export-node-shadow)"><rect rx="12" ry="10" x="121.5" y="-936" width="280" height="104" fill="url(#grad-peripheral)" stroke="#fb923c" stroke-width="2"/><rect rx="8" ry="10" x="129.5" y="-928" width="264" height="88" fill="rgba(0,0,0,0.18)"/><rect rx="8" ry="10" x="139.5" y="-918" width="48" height="48" fill="rgba(0,0,0,0.22)" stroke="rgba(255,255,255,0.15)" stroke-width="1"/><text x="163.5" y="-890" fill="#ffedd5" font-size="12px" font-weight="800" font-family="Inter, ui-sans-serif, system-ui, sans-serif" text-anchor="middle">I/O</text><text x="199.5" y="-902" fill="#ffffff" font-size="16px" font-weight="600" font-family="Inter, ui-sans-serif, system-ui, sans-serif">Peripheral_12</text><text x="199.5" y="-882" fill="rgba(255,255,255,0.65)" font-size="12px" font-weight="500" text-anchor="start" font-family="Inter, ui-sans-serif, system-ui, sans-serif">peripheral</text></g><g class="node node-component" filter="url(#export-node-shadow)"><rect rx="12" ry="10" x="121.5" y="-728" width="280" height="104" fill="url(#grad-peripheral)" stroke="#fb923c" stroke-width="2"/><rect rx="8" ry="10" x="129.5" y="-720" width="264" height="88" fill="rgba(0,0,0,0.18)"/><rect rx="8" ry="10" x="139.5" y="-710" width="48" height="48" fill="rgba(0,0,0,0.22)" stroke="rgba(255,255,255,0.15)" stroke-width="1"/><text x="163.5" y="-682" fill="#ffedd5" font-size="12px" font-weight="800" font-family="Inter, ui-sans-serif, system-ui, sans-serif" text-anchor="middle">I/O</text><text x="199.5" y="-694" fill="#ffffff" font-size="16px" font-weight="600" font-family="Inter, ui-sans-serif, system-ui, sans-serif">Peripheral_11</text><text x="199.5" y="-674" fill="rgba(255,255,255,0.65)" font-size="12px" font-weight="500" text-anchor="start" font-family="Inter, ui-sans-serif, system-ui, sans-serif">peripheral</text></g><g class="node node-component" filter="url(#export-node-shadow)"><rect rx="12" ry="10" x="469.5" y="-312" width="280" height="104" fill="url(#grad-peripheral)" stroke="#fb923c" stroke-width="2"/><rect rx="8" ry="10" x="477.5" y="-304" width="264" height="88" fill="rgba(0,0,0,0.18)"/><rect rx="8" ry="10" x="487.5" y="-294" width="48" height="48" fill="rgba(0,0,0,0.22)" stroke="rgba(255,255,255,0.15)" stroke-width="1"/><text x="511.5" y="-266" fill="#ffedd5" font-size="12px" font-weight="800" font-family="Inter, ui-sans-serif, system-ui, sans-serif" text-anchor="middle">I/O</text><text x="547.5" y="-278" fill="#ffffff" font-size="16px" font-weight="600" font-family="Inter, ui-sans-serif, system-ui, sans-serif">Peripheral_51</text><text x="547.5" y="-258" fill="rgba(255,255,255,0.65)" font-size="12px" font-weight="500" text-anchor="start" font-family="Inter, ui-sans-serif, system-ui, sans-serif">peripheral</text></g><g class="node node-component" filter="url(#export-node-shadow)"><rect rx="12" ry="10" x="469.5" y="312" width="280" height="104" fill="url(#grad-peripheral)" stroke="#fb923c" stroke-width="2"/><rect rx="8" ry="10" x="477.5" y="320" width="264" height="88" fill="rgba(0,0,0,0.18)"/><rect rx="8" ry="10" x="487.5" y="330" width="48" height="48" fill="rgba(0,0,0,0.22)" stroke="rgba(255,255,255,0.15)" stroke-width="1"/><text x="511.5" y="358" fill="#ffedd5" font-size="12px" font-weight="800" font-family="Inter, ui-sans-serif, system-ui, sans-serif" text-anchor="middle">I/O</text><text x="547.5" y="346" fill="#ffffff" font-size="16px" font-weight="600" font-family="Inter, ui-sans-serif, system-ui, sans-serif">Peripheral_63</text><text x="547.5" y="366" fill="rgba(255,255,255,0.65)" font-size="12px" font-weight="500" text-anchor="start" font-family="Inter, ui-sans-serif, system-ui, sans-serif">peripheral</text></g></g><g class="sidebar-panel"><rect x="909.5" y="-1032" width="360" height="1544" fill="#0b1018" stroke="rgba(255,255,255,0.1)" stroke-width="1"/><rect x="909.5" y="-1012" width="360" height="4" fill="#ea580c"/><rect rx="10" ry="10" x="929.5" y="-996" width="40" height="40" fill="#ea580c20" stroke="#fb923c40" stroke-width="1"/><text x="949.5" y="-975" fill="#fb923c" font-size="12px" font-weight="700" font-family="Inter, ui-sans-serif, system-ui, sans-serif" text-anchor="middle">PE</text><rect rx="10" ry="10" x="981.5" y="-994" width="86" height="20" fill="#fb923c1a" stroke="#fb923c40" stroke-width="1"/><text x="989.5" y="-981" fill="#fb923c" font-size="10px" font-weight="600" font-family="Inter, ui-sans-serif, system-ui, sans-serif" text-transform="uppercase">peripheral</text><text x="981.5" y="-958" fill="#f8fafc" font-size="16px" font-weight="600" font-family="Inter, ui-sans-serif, system-ui, sans-serif">Peripheral_12</text><text x="981.5" y="-940" fill="#64748b" font-size="11px" font-family="SFMono-Regular, ui-monospace, monospace">peripheral_12</text><rect x="909.5" y="-916" width="360" height="1" fill="rgba(255,255,255,0.1)"/><text x="989.5" y="-908" fill="#e2e8f0" font-size="18px" font-weight="600" font-family="Inter, ui-sans-serif, system-ui, sans-serif" text-anchor="middle">11</text><text x="989.5" y="-892" fill="#64748b" font-size="10px" font-weight="500" font-family="Inter, ui-sans-serif, system-ui, sans-serif" text-anchor="middle">PORTS</text><text x="1109.5" y="-908" fill="#e2e8f0" font-size="18px" font-weight="600" font-family="Inter, ui-sans-serif, system-ui, sans-serif" text-anchor="middle">6</text><text x="1109.5" y="-892" fill="#64748b" font-size="10px" font-weight="500" font-family="Inter, ui-sans-serif, system-ui, sans-serif" text-anchor="middle">REGISTERS</text><text x="1229.5" y="-908" fill="#e2e8f0" font-size="18px" font-weight="600" font-family="Inter, ui-sans-serif, system-ui, sans-serif" text-anchor="middle">17</text><text x="1229.5" y="-892" fill="#64748b" font-size="10px" font-weight="500" font-family="Inter, ui-sans-serif, system-ui, sans-serif" text-anchor="middle">CONNECTIONS</text><rect x="909.5" y="-872" width="360" height="1" fill="rgba(255,255,255,0.1)"/><text x="929.5" y="-856" fill="#64748b" font-size="11px" font-weight="600" font-family="Inter, ui-sans-serif, system-ui, sans-serif" letter-spacing="0.05em">PORTS</text><rect rx="10" ry="10" x="929.5" y="-844" width="320" height="28" fill="rgba(255,255,255,0.03)" stroke="rgba(255,255,255,0.05)" stroke-width="1"/><rect x="941.5" y="-834" width="6" height="6" fill="#34d399"/><text x="953.5" y="-826" fill="#e2e8f0" font-size="13px" font-weight="500" font-family="Inter, ui-sans-serif, system-ui, sans-serif">clk</text><rect rx="10" ry="10" x="1199.5" y="-838" width="24" height="16" fill="rgba(16,185,129,0.1)"/><text x="1205.5" y="-827" fill="#059669" font-size="10px" font-weight="500" font-family="Inter, ui-sans-serif, system-ui, sans-serif">IN</text><text x="1233.5" y="-826" fill="#64748b" font-size="11px" font-family="SFMono-Regular, ui-monospace, monospace" text-anchor="end">32b</text><rect rx="10" ry="10" x="929.5" y="-812" width="320" height="28" fill="rgba(255,255,255,0.03)" stroke="rgba(255,255,255,0.05)" stroke-width="1"/><rect x="941.5" y="-802" width="6" height="6" fill="#fbbf24"/><text x="953.5" y="-794" fill="#e2e8f0" font-size="13px" font-weight="500" font-family="Inter, ui-sans-serif, system-ui, sans-serif">rst</text><rect rx="10" ry="10" x="1199.5" y="-806" width="30" height="16" fill="rgba(245,158,11,0.1)"/><text x="1205.5" y="-795" fill="#d97706" font-size="10px" font-weight="500" font-family="Inter, ui-sans-serif, system-ui, sans-serif">OUT</text><text x="1233.5" y="-794" fill="#64748b" font-size="11px" font-family="SFMono-Regular, ui-monospace, monospace" text-anchor="end">16b</text><rect rx="10" ry="10" x="929.5" y="-780" width="320" height="28" fill="rgba(255,255,255,0.03)" stroke="rgba(255,255,255,0.05)" stroke-width="1"/><rect x="941.5" y="-770" width="6" height="6" fill="#94a3b8"/><text x="953.5" y="-762" fill="#e2e8f0" font-size="13px" font-weight="500" font-family="Inter, ui-sans-serif, system-ui, sans-serif">paddr</text><rect rx="10" ry="10" x="1199.5" y="-774" width="42" height="16" fill="rgba(100,116,139,0.1)"/><text x="1205.5" y="-763" fill="#475569" font-size="10px" font-weight="500" font-family="Inter, ui-sans-serif, system-ui, sans-serif">INOUT</text><text x="1233.5" y="-762" fill="#64748b" font-size="11px" font-family="SFMono-Regular, ui-monospace, monospace" text-anchor="end">16b</text><rect rx="10" ry="10" x="929.5" y="-748" width="320" height="28" fill="rgba(255,255,255,0.03)" stroke="rgba(255,255,255,0.05)" stroke-width="1"/><rect x="941.5" y="-738" width="6" height="6" fill="#34d399"/><text x="953.5" y="-730" fill="#e2e8f0" font-size="13px" font-weight="500" font-family="Inter, ui-sans-serif, system-ui, sans-serif">pwrite</text><rect rx="10" ry="10" x="1199.5" y="-742" width="24" height="16" fill="rgba(16,185,129,0.1)"/><text x="1205.5" y="-731" fill="#059669" font-size="10px" font-weight="500" font-family="Inter, ui-sans-serif, system-ui, sans-serif">IN</text><text x="1233.5" y="-730" fill="#64748b" font-size="11px" font-family="SFMono-Regular, ui-monospace, monospace" text-anchor="end">16b</text><rect rx="10" ry="10" x="929.5" y="-716" width="320" height="28" fill="rgba(255,255,255,0.03)" stroke="rgba(255,255,255,0.05)" stroke-width="1"/><rect x="941.5" y="-706" width="6" height="6" fill="#fbbf24"/><text x="953.5" y="-698" fill="#e2e8f0" font-size="13px" font-weight="500" font-family="Inter, ui-sans-serif, system-ui, sans-serif">pwdata</text><rect rx="10" ry="10" x="1199.5" y="-710" width="30" height="16" fill="rgba(245,158,11,0.1)"/><text x="1205.5" y="-699" fill="#d97706" font-size="10px" font-weight="500" font-family="Inter, ui-sans-serif, system-ui, sans-serif">OUT</text><text x="1233.5" y="-698" fill="#64748b" font-size="11px" font-family="SFMono-Regular, ui-monospace, monospace" text-anchor="end">32b</text><rect rx="10" ry="10" x="929.5" y="-684" width="320" height="28" fill="rgba(255,255,255,0.03)" stroke="rgba(255,255,255,0.05)" stroke-width="1"/><rect x="941.5" y="-674" width="6" height="6" fill="#94a3b8"/><text x="953.5" y="-666" fill="#e2e8f0" font-size="13px" font-weight="500" font-family="Inter, ui-sans-serif, system-ui, sans-serif">psel</text><rect rx="10" ry="10" x="1199.5" y="-678" width="42" height="16" fill="rgba(100,116,139,0.1)"/><text x="1205.5" y="-667" fill="#475569" font-size="10px" font-weight="500" font-family="Inter, ui-sans-serif, system-ui, sans-serif">INOUT</text><text x="1233.5" y="-666" fill="#64748b" font-size="11px" font-family="SFMono-Regular, ui-monospace, monospace" text-anchor="end">16b</text><rect rx="10" ry="10" x="929.5" y="-652" width="320" height="28" fill="rgba(255,255,255,0.03)" stroke="rgba(255,255,255,0.05)" stroke-width="1"/><rect x="941.5" y="-642" width="6" height="6" fill="#34d399"/><text x="953.5" y="-634" fill="#e2e8f0" font-size="13px" font-weight="500" font-family="Inter, ui-sans-serif, system-ui, sans-serif">penable</text><rect rx="10" ry="10" x="1199.5" y="-646" width="24" height="16" fill="rgba(16,185,129,0.1)"/><text x="1205.5" y="-635" fill="#059669" font-size="10px" font-weight="500" font-family="Inter, ui-sans-serif, system-ui, sans-serif">IN</text><text x="1233.5" y="-634" fill="#64748b" font-size="11px" font-family="SFMono-Regular, ui-monospace, monospace" text-anchor="end">16b</text><rect rx="10" ry="10" x="929.5" y="-620" width="320" height="28" fill="rgba(255,255,255,0.03)" stroke="rgba(255,255,255,0.05)" stroke-width="1"/><rect x="941.5" y="-610" width="6" height="6" fill="#fbbf24"/><text x="953.5" y="-602" fill="#e2e8f0" font-size="13px" font-weight="500" font-family="Inter, ui-sans-serif, system-ui, sans-serif">prdata</text><rect rx="10" ry="10" x="1199.5" y="-614" width="30" height="16" fill="rgba(245,158,11,0.1)"/><text x="1205.5" y="-603" fill="#d97706" font-size="10px" font-weight="500" font-family="Inter, ui-sans-serif, system-ui, sans-serif">OUT</text><text x="1233.5" y="-602" fill="#64748b" font-size="11px" font-family="SFMono-Regular, ui-monospace, monospace" text-anchor="end">16b</text><rect rx="10" ry="10" x="929.5" y="-588" width="320" height="28" fill="rgba(255,255,255,0.03)" stroke="rgba(255,255,255,0.05)" stroke-width="1"/><rect x="941.5" y="-578" width="6" height="6" fill="#94a3b8"/><text x="953.5" y="-570" fill="#e2e8f0" font-size="13px" font-weight="500" font-family="Inter, ui-sans-serif, system-ui, sans-serif">txd</text><rect rx="10" ry="10" x="1199.5" y="-582" width="42" height="16" fill="rgba(100,116,139,0.1)"/><text x="1205.5" y="-571" fill="#475569" font-size="10px" font-weight="500" font-family="Inter, ui-sans-serif, system-ui, sans-serif">INOUT</text><text x="1233.5" y="-570" fill="#64748b" font-size="11px" font-family="SFMono-Regular, ui-monospace, monospace" text-anchor="end">32b</text><rect rx="10" ry="10" x="929.5" y="-556" width="320" height="28" fill="rgba(255,255,255,0.03)" stroke="rgba(255,255,255,0.05)" stroke-width="1"/><rect x="941.5" y="-546" width="6" height="6" fill="#34d399"/><text x="953.5" y="-538" fill="#e2e8f0" font-size="13px" font-weight="500" font-family="Inter, ui-sans-serif, system-ui, sans-serif">rxd</text><rect rx="10" ry="10" x="1199.5" y="-550" width="24" height="16" fill="rgba(16,185,129,0.1)"/><text x="1205.5" y="-539" fill="#059669" font-size="10px" font-weight="500" font-family="Inter, ui-sans-serif, system-ui, sans-serif">IN</text><text x="1233.5" y="-538" fill="#64748b" font-size="11px" font-family="SFMono-Regular, ui-monospace, monospace" text-anchor="end">16b</text><rect rx="10" ry="10" x="929.5" y="-524" width="320" height="28" fill="rgba(255,255,255,0.03)" stroke="rgba(255,255,255,0.05)" stroke-width="1"/><rect x="941.5" y="-514" width="6" height="6" fill="#fbbf24"/><text x="953.5" y="-506" fill="#e2e8f0" font-size="13px" font-weight="500" font-family="Inter, ui-sans-serif, system-ui, sans-serif">irq</text><rect rx="10" ry="10" x="1199.5" y="-518" width="30" height="16" fill="rgba(245,158,11,0.1)"/><text x="1205.5" y="-507" fill="#d97706" font-size="10px" font-weight="500" font-family="Inter, ui-sans-serif, system-ui, sans-serif">OUT</text><text x="1233.5" y="-506" fill="#64748b" font-size="11px" font-family="SFMono-Regular, ui-monospace, monospace" text-anchor="end">16b</text><rect x="909.5" y="-484" width="360" height="1" fill="rgba(255,255,255,0.1)"/><text x="929.5" y="-468" fill="#64748b" font-size="11px" font-weight="600" font-family="Inter, ui-sans-serif, system-ui, sans-serif" letter-spacing="0.05em">REGISTERS</text><rect rx="10" ry="10" x="929.5" y="-456" width="320" height="28" fill="rgba(255,255,255,0.03)" stroke="rgba(255,255,255,0.05)" stroke-width="1"/><text x="941.5" y="-438" fill="#e2e8f0" font-size="13px" font-weight="500" font-family="Inter, ui-sans-serif, system-ui, sans-serif">CTRL</text><rect rx="10" ry="10" x="1179.5" y="-450" width="54" height="16" fill="rgba(255,255,255,0.05)"/><text x="1185.5" y="-439" fill="#94a3b8" font-size="10px" font-family="SFMono-Regular, ui-monospace, monospace">0x0000</text><rect rx="10" ry="10" x="929.5" y="-424" width="320" height="28" fill="rgba(255,255,255,0.03)" stroke="rgba(255,255,255,0.05)" stroke-width="1"/><text x="941.5" y="-406" fill="#e2e8f0" font-size="13px" font-weight="500" font-family="Inter, ui-sans-serif, system-ui, sans-serif">STATUS</text><rect rx="10" ry="10" x="1179.5" y="-418" width="54" height="16" fill="rgba(255,255,255,0.05)"/><text x="1185.5" y="-407" fill="#94a3b8" font-size="10px" font-family="SFMono-Regular, ui-monospace, monospace">0x0004</text><rect rx="10" ry="10" x="929.5" y="-392" width="320" height="28" fill="rgba(255,255,255,0.03)" stroke="rgba(255,255,255,0.05)" stroke-width="1"/><text x="941.5" y="-374" fill="#e2e8f0" font-size="13px" font-weight="500" font-family="Inter, ui-sans-serif, system-ui, sans-serif">DATA</text><rect rx="10" ry="10" x="1179.5" y="-386" width="54" height="16" fill="rgba(255,255,255,0.05)"/><text x="1185.5" y="-375" fill="#94a3b8" font-size="10px" font-family="SFMono-Regular, ui-monospace, monospace">0x0008</text><rect rx="10" ry="10" x="929.5" y="-360" width="320" height="28" fill="rgba(255,255,255,0.03)" stroke="rgba(255,255,255,0.05)" stroke-width="1"/><text x="941.5" y="-342" fill="#e2e8f0" font-size="13px" font-weight="500" font-family="Inter, ui-sans-serif, system-ui, sans-serif">BAUD</text><rect rx="10" ry="10" x="1179.5" y="-354" width="54" height="16" fill="rgba(255,255,255,0.05)"/><text x="1185.5" y="-343" fill="#94a3b8" font-size="10px" font-family="SFMono-Regular, ui-monospace, monospace">0x000c</text><rect rx="10" ry="10" x="929.5" y="-328" width="320" height="28" fill="rgba(255,255,255,0.03)" stroke="rgba(255,255,255,0.05)" stroke-width="1"/><text x="941.5" y="-310" fill="#e2e8f0" font-size="13px" font-weight="500" font-family="Inter, ui-sans-serif, system-ui, sans-serif">IE</text><rect rx="10" ry="10" x="1179.5" y="-322" width="54" height="16" fill="rgba(255,255,255,0.05)"/><text x="1185.5" y="-311" fill="#94a3b8" font-size="10px" font-family="SFMono-Regular, ui-monospace, monospace">0x0010</text><rect rx="10" ry="10" x="929.5" y="-296" width="320" height="28" fill="rgba(255,255,255,0.03)" stroke="rgba(255,255,255,0.05)" stroke-width="1"/><text x="941.5" y="-278" fill="#e2e8f0" font-size="13px" font-weight="500" font-family="Inter, ui-sans-serif, system-ui, sans-serif">DE</text><rect rx="10" ry="10" x="1179.5" y="-290" width="54" height="16" fill="rgba(255,255,255,0.05)"/><text x="1185.5" y="-279" fill="#94a3b8" font-size="10px" font-family="SFMono-Regular, ui-monospace, monospace">0x0014</text></g></svg>